# File created by Blade
# Date/Time:  Wed Apr 08 17:19:54 2015
# Frame Rate: 120.000 fps
#------------------------------------------------------
:FULLY-SPECIFIED
:DEGREES
744
root 5.074791 35.936415 1.177443 -5.998630 -36.316437 -2.504340
Spine 8.931703 0.689663 1.469857
Head 25.243383 25.378175 13.015975
LeftShoulder -7.245404 17.093483 15.946234
LeftArm 16.948920 22.821801 -76.095065
LeftForeArm 21.815998 0.000000 18.986006
LeftHand -10.462307 -0.000000 -16.369799
LeftHandThumb1 -26.253704 0.000000 33.147579
RightShoulder -34.568925 -49.807162 28.689358
RightArm 57.432789 -20.775821 55.249743
RightForeArm 25.960539 -0.000000 1.552835
RightHand -7.510931 0.000000 13.801341
RightHandThumb1 -24.326973 -0.000000 -32.862282
LeftUpLeg 12.282311 4.730280 -3.162675
LeftLeg 8.761719 -0.000000 -0.000000
LeftFoot -15.895792 -2.745858 -0.509316
LeftToeBase 11.586778 -0.000000 -0.000000
RightUpLeg -16.850359 1.350117 -4.392210
RightLeg 150.710258 -0.000000 -0.000000
RightFoot 37.646192 5.893629 13.292822
RightToeBase 10.098786 -0.000000 -0.000000
745
root 5.059197 35.926833 1.171690 -6.025865 -36.401422 -2.554464
Spine 8.949828 0.766520 1.469381
Head 25.333292 25.245628 13.055818
LeftShoulder -7.241032 17.163890 15.893079
LeftArm 16.940805 22.725692 -76.033406
LeftForeArm 21.915974 -0.000000 18.728996
LeftHand -10.473867 -0.000000 -16.392879
LeftHandThumb1 -26.253704 0.000000 33.147579
RightShoulder -34.644495 -49.825438 28.809692
RightArm 57.448776 -20.772241 55.252309
RightForeArm 26.043258 -0.000000 1.561841
RightHand -7.500729 0.000000 13.685083
RightHandThumb1 -24.326973 -0.000000 -32.862282
LeftUpLeg 12.299340 4.363892 -3.239288
LeftLeg 8.867427 -0.000000 -0.000000
LeftFoot -15.928794 -2.182257 -0.219363
LeftToeBase 11.108664 -0.000000 -0.000000
RightUpLeg -16.834589 1.140743 -4.368130
RightLeg 150.730147 -0.000000 -0.000000
RightFoot 37.515951 6.147594 12.747441
RightToeBase 9.628019 -0.000000 -0.000000
746
root 5.042322 35.918607 1.169059 -6.077562 -36.567320 -2.601381
Spine 8.983966 0.917829 1.486118
Head 25.450359 25.144161 13.113363
LeftShoulder -7.229462 17.186372 15.848960
LeftArm 16.869531 22.672177 -75.993647
LeftForeArm 21.982096 -0.000000 18.471631
LeftHand -10.485203 -0.000000 -16.459967
LeftHandThumb1 -26.253704 0.000000 33.147579
RightShoulder -34.704588 -49.836615 28.900646
RightArm 57.475412 -20.804261 55.219895
RightForeArm 26.176142 -0.000000 1.541386
RightHand -7.475275 -0.000000 13.663420
RightHandThumb1 -24.326973 -0.000000 -32.862282
LeftUpLeg 12.390521 4.090353 -3.293682
LeftLeg 8.894019 -0.000000 -0.000000
LeftFoot -15.965040 -1.717511 -0.097398
LeftToeBase 10.810021 -0.000000 -0.000000
RightUpLeg -16.822593 1.051392 -4.351191
RightLeg 150.732597 -0.000000 -0.000000
RightFoot 37.397376 6.214126 12.578396
RightToeBase 9.776975 -0.000000 -0.000000
747
root 5.025466 35.912008 1.167563 -6.142474 -36.796852 -2.637456
Spine 9.010369 1.107289 1.504908
Head 25.617897 25.046294 13.199561
LeftShoulder -7.214199 17.250173 15.814674
LeftArm 16.808933 22.592838 -75.975069
LeftForeArm 21.993412 0.000000 18.243628
LeftHand -10.528429 -0.000000 -16.479680
LeftHandThumb1 -26.253704 0.000000 33.147579
RightShoulder -34.745223 -49.881467 28.978183
RightArm 57.511453 -20.804726 55.223158
RightForeArm 26.284833 -0.000000 1.496698
RightHand -7.447189 -0.000000 13.614981
RightHandThumb1 -24.326973 -0.000000 -32.862282
LeftUpLeg 12.510908 3.927042 -3.327509
LeftLeg 8.887012 -0.000000 -0.000000
LeftFoot -16.013043 -1.342496 -0.088047
LeftToeBase 10.628529 -0.000000 -0.000000
RightUpLeg -16.833303 1.003870 -4.319072
RightLeg 150.739995 -0.000000 -0.000000
RightFoot 37.297383 6.146608 12.538151
RightToeBase 9.927042 -0.000000 -0.000000
748
root 5.007899 35.906281 1.168201 -6.254394 -37.106848 -2.648322
Spine 9.068090 1.342395 1.503501
Head 25.828388 24.973901 13.305328
LeftShoulder -7.222306 17.336218 15.797008
LeftArm 16.740499 22.495817 -75.998084
LeftForeArm 22.067086 0.000000 18.015761
LeftHand -10.580399 -0.000000 -16.437090
LeftHandThumb1 -26.253704 0.000000 33.147579
RightShoulder -34.741485 -49.914378 29.011560
RightArm 57.539720 -20.832974 55.205390
RightForeArm 26.426205 -0.000000 1.471698
RightHand -7.488226 -0.000000 13.530676
RightHandThumb1 -24.326973 -0.000000 -32.862282
LeftUpLeg 12.715709 3.912285 -3.346970
LeftLeg 8.791704 -0.000000 -0.000000
LeftFoot -16.025621 -1.043156 -0.096301
LeftToeBase 10.437574 -0.000000 -0.000000
RightUpLeg -16.824817 1.054984 -4.315266
RightLeg 150.768865 -0.000000 -0.000000
RightFoot 37.222134 6.171866 12.524947
RightToeBase 10.051864 -0.000000 -0.000000
